# xmcd
#
# Track frame offsets:
#	150
#	17530
#	35964
#	54544
#	73828
#	93363
#	107388
#	127318
#	148293
#	161486
#	181341
#	200801
#
# Disc length: 2953 seconds
#
# Revision: 2
# Processed by: cddbd v1.5.2PL0 Copyright (c) Steve Scherf et al.
# Submitted via: audiograbber 1.83.01
#
DISCID=b50b870c
DTITLE=J.J. Johnson - Quadromania, CD4
DYEAR=1900
DGENRE=Jazz
TTITLE0=Old Devil Moon
TTITLE1=It's Yo Or No One
TTITLE2=Coffee Pot
TTITLE3=Pennies From Heaven
TTITLE4=Viscosity
TTITLE5=Your're Mine Yo
TTITLE6=Daylie Double
TTITLE7=Groovin
TTITLE8=Portrait Of Jennie
TTITLE9=Pennies From Heaven
TTITLE10=Viscosity
TTITLE11=Daylie Double
EXTD=
EXTT0=
EXTT1=
EXTT2=
EXTT3=
EXTT4=
EXTT5=
EXTT6=
EXTT7=
EXTT8=
EXTT9=
EXTT10=
EXTT11=
PLAYORDER=
